<?xml version="1.0" encoding="UTF-8" standalone="no"?>
<svg
   xmlns:dc="http://purl.org/dc/elements/1.1/"
   xmlns:cc="http://creativecommons.org/ns#"
   xmlns:rdf="http://www.w3.org/1999/02/22-rdf-syntax-ns#"
   xmlns:svg="http://www.w3.org/2000/svg"
   xmlns="http://www.w3.org/2000/svg"
   xmlns:sodipodi="http://sodipodi.sourceforge.net/DTD/sodipodi-0.dtd"
   xmlns:inkscape="http://www.inkscape.org/namespaces/inkscape"
   width="370"
   height="370"
   viewBox="0 0 369.99999 370"
   version="1.1"
   id="svg8"
   sodipodi:docname="pause.svg"
   inkscape:version="1.0.2 (e86c870879, 2021-01-15, custom)">
  <metadata
     id="metadata14">
    <rdf:RDF>
      <cc:Work
         rdf:about="">
        <dc:format>image/svg+xml</dc:format>
        <dc:type
           rdf:resource="http://purl.org/dc/dcmitype/StillImage" />
        <dc:title>ionicons-v5-c</dc:title>
      </cc:Work>
    </rdf:RDF>
  </metadata>
  <defs
     id="defs12">
    <clipPath
       clipPathUnits="userSpaceOnUse"
       id="clipPath15">
      <g
         inkscape:label="Clip"
         id="use17">
        <path
           d="m 64.000001,352.00001 h -48 A 16,16 0 0 1 0,336.00001 V 16 A 16,16 0 0 1 16.000001,0 h 48 a 16,16 0 0 1 16,16 v 320.00001 a 16,16 0 0 1 -16,16 z"
           id="path839" />
        <path
           d="m 207.99999,352.00001 h -48 a 16,16 0 0 1 -16,-16 V 16 a 16,16 0 0 1 16,-16 h 48 a 16,16 0 0 1 16,16 v 320.00001 a 16,16 0 0 1 -16,16 z"
           id="path841" />
      </g>
    </clipPath>
  </defs>
  <sodipodi:namedview
     pagecolor="#ffffff"
     bordercolor="#666666"
     borderopacity="1"
     objecttolerance="10"
     gridtolerance="10"
     guidetolerance="10"
     inkscape:pageopacity="0"
     inkscape:pageshadow="2"
     inkscape:window-width="1920"
     inkscape:window-height="1057"
     id="namedview10"
     showgrid="false"
     fit-margin-top="0"
     fit-margin-left="0"
     fit-margin-right="0"
     fit-margin-bottom="0"
     inkscape:zoom="0.86914065"
     inkscape:cx="319.6442"
     inkscape:cy="130.99047"
     inkscape:window-x="-8"
     inkscape:window-y="-8"
     inkscape:window-maximized="1"
     inkscape:current-layer="svg8"
     inkscape:document-rotation="0" />
  <title
     id="title2">ionicons-v5-c</title>
  <path
     d="M 137.00001,361 H 89.000006 A 16,16 0 0 1 73.000005,345 V 24.999995 a 16,16 0 0 1 16.000001,-16 h 48.000004 a 16,16 0 0 1 16,16 V 345 a 16,16 0 0 1 -16,16 z"
     id="path4" />
  <path
     d="M 281,361 H 233 A 16,16 0 0 1 217,345 V 24.999995 a 16,16 0 0 1 16,-16 h 48 a 16,16 0 0 1 16,16 V 345 a 16,16 0 0 1 -16,16 z"
     id="path6" />
</svg>
